<?xml version="1.0" encoding="UTF-8"?>
<!DOCTYPE svg PUBLIC "-//W3C//DTD SVG 1.1//EN" "http://www.w3.org/Graphics/SVG/1.1/DTD/svg11.dtd">
<svg xmlns="http://www.w3.org/2000/svg" version="1.1" width="300px" height="300px" style="shape-rendering:geometricPrecision; text-rendering:geometricPrecision; image-rendering:optimizeQuality; fill-rule:evenodd; clip-rule:evenodd" xmlns:xlink="http://www.w3.org/1999/xlink">
<g><path style="opacity:1" fill="#f0643a" d="M 246.5,212.5 C 245.596,211.791 245.263,210.791 245.5,209.5C 241.205,209.721 240.538,208.388 243.5,205.5C 240.941,201.097 240.941,196.763 243.5,192.5C 239.555,191.509 235.555,191.176 231.5,191.5C 231.5,188.833 231.5,186.167 231.5,183.5C 228.167,183.5 224.833,183.5 221.5,183.5C 221.5,184.833 221.5,186.167 221.5,187.5C 220.167,187.5 218.833,187.5 217.5,187.5C 217.5,188.833 217.5,190.167 217.5,191.5C 218.978,191.238 220.311,191.571 221.5,192.5C 220.281,196.394 218.614,200.061 216.5,203.5C 215.132,200.932 215.466,198.599 217.5,196.5C 215.604,195.534 213.604,195.201 211.5,195.5C 211.5,196.833 211.5,198.167 211.5,199.5C 210.167,199.5 208.833,199.5 207.5,199.5C 207.351,198.448 207.517,197.448 208,196.5C 214.448,190.024 218.615,182.691 220.5,174.5C 222.233,171.617 223.566,168.617 224.5,165.5C 225.151,164.909 225.818,164.243 226.5,163.5C 227.833,152.833 227.833,142.167 226.5,131.5C 225.943,129.668 224.943,128.335 223.5,127.5C 223.975,124.918 223.308,122.918 221.5,121.5C 218.198,113.563 213.864,106.229 208.5,99.5C 207.571,98.3112 207.238,96.9778 207.5,95.5C 203.412,94.4376 200.079,92.1043 197.5,88.5C 192.874,85.3034 188.207,82.3034 183.5,79.5C 183.279,78.2652 182.612,77.2652 181.5,76.5C 174.471,73.3766 167.138,71.7099 159.5,71.5C 151.921,71.0944 144.588,71.7611 137.5,73.5C 129.85,74.5777 122.517,76.5777 115.5,79.5C 112.446,79.354 110.446,80.6874 109.5,83.5C 102.423,88.3239 95.7559,93.6573 89.5,99.5C 88.0568,98.6649 87.0568,97.3316 86.5,95.5C 85.5713,96.6888 85.238,98.0222 85.5,99.5C 84.1667,99.5 82.8333,99.5 81.5,99.5C 81.1601,102.144 81.8267,104.477 83.5,106.5C 82.3112,107.429 80.9778,107.762 79.5,107.5C 79.3285,109.492 79.9951,111.158 81.5,112.5C 79.792,114.543 77.792,116.21 75.5,117.5C 71.5242,115.922 70.8575,113.589 73.5,110.5C 71.6675,109.752 70.0009,108.752 68.5,107.5C 67.8333,108.167 67.1667,108.833 66.5,109.5C 64.7866,108.122 63.4533,106.455 62.5,104.5C 60.9547,103.548 59.288,103.215 57.5,103.5C 57.5,102.167 57.5,100.833 57.5,99.5C 55.5,99.5 53.5,99.5 51.5,99.5C 51.6715,97.5082 51.0049,95.8415 49.5,94.5C 53.0519,87.6178 57.3852,81.2845 62.5,75.5C 63.1667,76.8333 63.8333,78.1667 64.5,79.5C 65.48,76.9135 65.8134,74.2469 65.5,71.5C 66.8333,71.5 68.1667,71.5 69.5,71.5C 69.8882,76.3235 72.5548,78.3235 77.5,77.5C 78.3235,72.5548 76.3235,69.8882 71.5,69.5C 71.5,68.1667 71.5,66.8333 71.5,65.5C 72.8333,65.5 74.1667,65.5 75.5,65.5C 76.2177,61.758 78.2177,58.758 81.5,56.5C 85.367,53.8021 89.367,51.3021 93.5,49C 92.944,48.6174 92.6107,48.1174 92.5,47.5C 121.511,31.4828 152.178,27.9828 184.5,37C 231.111,53.6158 257.944,86.4491 265,135.5C 267.998,163.607 261.831,189.274 246.5,212.5 Z"/></g>
<g><path style="opacity:1" fill="#db775a" d="M 159.5,71.5 C 167.138,71.7099 174.471,73.3766 181.5,76.5C 182.612,77.2652 183.279,78.2652 183.5,79.5C 175.801,76.2419 167.801,74.2419 159.5,73.5C 159.5,72.8333 159.5,72.1667 159.5,71.5 Z"/></g>
<g><path style="opacity:1" fill="#f0d5bb" d="M 159.5,71.5 C 159.5,72.1667 159.5,72.8333 159.5,73.5C 152.167,73.5 144.833,73.5 137.5,73.5C 144.588,71.7611 151.921,71.0944 159.5,71.5 Z"/></g>
<g><path style="opacity:1" fill="#fdfdfc" d="M 137.5,73.5 C 144.833,73.5 152.167,73.5 159.5,73.5C 167.801,74.2419 175.801,76.2419 183.5,79.5C 188.207,82.3034 192.874,85.3034 197.5,88.5C 200.079,92.1043 203.412,94.4376 207.5,95.5C 207.238,96.9778 207.571,98.3112 208.5,99.5C 213.864,106.229 218.198,113.563 221.5,121.5C 221.5,122.167 221.5,122.833 221.5,123.5C 220.448,123.351 219.448,123.517 218.5,124C 213.078,131.424 206.412,137.424 198.5,142C 181.086,149.152 163.086,151.485 144.5,149C 134.307,145.382 124.307,141.382 114.5,137C 111.446,136.179 108.446,136.345 105.5,137.5C 104.873,138.417 104.539,139.417 104.5,140.5C 104.028,142.531 103.028,144.198 101.5,145.5C 93.6715,144.502 86.3382,142.002 79.5,138C 77.552,136.561 76.2186,134.728 75.5,132.5C 76.3284,129.521 76.9951,126.521 77.5,123.5C 81.3085,115.41 85.3085,107.41 89.5,99.5C 95.7559,93.6573 102.423,88.3239 109.5,83.5C 112.05,82.9432 114.05,81.6099 115.5,79.5C 122.517,76.5777 129.85,74.5777 137.5,73.5 Z"/></g>
<g><path style="opacity:1" fill="#d48e6e" d="M 115.5,79.5 C 114.05,81.6099 112.05,82.9432 109.5,83.5C 110.446,80.6874 112.446,79.354 115.5,79.5 Z"/></g>
<g><path style="opacity:1" fill="#e86541" d="M 92.5,47.5 C 92.6107,48.1174 92.944,48.6174 93.5,49C 89.367,51.3021 85.367,53.8021 81.5,56.5C 78.2177,58.758 76.2177,61.758 75.5,65.5C 74.1667,65.5 72.8333,65.5 71.5,65.5C 71.5,66.8333 71.5,68.1667 71.5,69.5C 76.3235,69.8882 78.3235,72.5548 77.5,77.5C 72.5548,78.3235 69.8882,76.3235 69.5,71.5C 68.1667,71.5 66.8333,71.5 65.5,71.5C 65.8134,74.2469 65.48,76.9135 64.5,79.5C 63.8333,78.1667 63.1667,76.8333 62.5,75.5C 57.3852,81.2845 53.0519,87.6178 49.5,94.5C 51.0049,95.8415 51.6715,97.5082 51.5,99.5C 53.5,99.5 55.5,99.5 57.5,99.5C 57.5,100.833 57.5,102.167 57.5,103.5C 59.288,103.215 60.9547,103.548 62.5,104.5C 63.4533,106.455 64.7866,108.122 66.5,109.5C 67.1667,108.833 67.8333,108.167 68.5,107.5C 70.0009,108.752 71.6675,109.752 73.5,110.5C 70.8575,113.589 71.5242,115.922 75.5,117.5C 77.792,116.21 79.792,114.543 81.5,112.5C 79.9951,111.158 79.3285,109.492 79.5,107.5C 80.9778,107.762 82.3112,107.429 83.5,106.5C 81.8267,104.477 81.1601,102.144 81.5,99.5C 82.8333,99.5 84.1667,99.5 85.5,99.5C 85.238,98.0222 85.5713,96.6888 86.5,95.5C 87.0568,97.3316 88.0568,98.6649 89.5,99.5C 85.3085,107.41 81.3085,115.41 77.5,123.5C 72.6292,117.813 67.2959,112.479 61.5,107.5C 60.6522,106.375 59.6522,106.375 58.5,107.5C 57.5,107.5 56.5,107.5 55.5,107.5C 55.5023,105.169 54.669,103.169 53,101.5C 52.2904,102.973 51.1238,103.64 49.5,103.5C 49.7136,99.7429 48.7136,99.0762 46.5,101.5C 43.36,110.353 40.36,119.02 37.5,127.5C 37.1667,127.5 36.8333,127.5 36.5,127.5C 42.9749,92.3493 61.6416,65.6826 92.5,47.5 Z"/></g>
<g><path style="opacity:1" fill="#f16438" d="M 55.5,107.5 C 55.2435,116.263 55.9102,124.929 57.5,133.5C 50.7389,133.419 44.0722,134.086 37.5,135.5C 37.5,132.833 37.5,130.167 37.5,127.5C 40.36,119.02 43.36,110.353 46.5,101.5C 48.7136,99.0762 49.7136,99.7429 49.5,103.5C 51.1238,103.64 52.2904,102.973 53,101.5C 54.669,103.169 55.5023,105.169 55.5,107.5 Z"/></g>
<g><path style="opacity:1" fill="#390e0a" d="M 61.5,107.5 C 60.7784,107.918 60.2784,108.584 60,109.5C 59.5005,115.491 59.3338,121.491 59.5,127.5C 57.9942,124.644 57.3275,121.477 57.5,118C 57.7067,114.477 58.04,110.977 58.5,107.5C 59.6522,106.375 60.6522,106.375 61.5,107.5 Z"/></g>
<g><path style="opacity:1" fill="#bb7860" d="M 221.5,121.5 C 223.308,122.918 223.975,124.918 223.5,127.5C 222.326,126.486 221.66,125.153 221.5,123.5C 221.5,122.833 221.5,122.167 221.5,121.5 Z"/></g>
<g><path style="opacity:1" fill="#d36a4c" d="M 55.5,107.5 C 56.5,107.5 57.5,107.5 58.5,107.5C 58.04,110.977 57.7067,114.477 57.5,118C 57.3275,121.477 57.9942,124.644 59.5,127.5C 59.8726,130.574 60.5392,133.574 61.5,136.5C 58.5175,136.102 55.5175,135.768 52.5,135.5C 46.4922,136.503 40.4922,137.503 34.5,138.5C 34.9309,134.663 35.5975,130.997 36.5,127.5C 36.8333,127.5 37.1667,127.5 37.5,127.5C 37.5,130.167 37.5,132.833 37.5,135.5C 44.0722,134.086 50.7389,133.419 57.5,133.5C 55.9102,124.929 55.2435,116.263 55.5,107.5 Z"/></g>
<g><path style="opacity:1" fill="#09090b" d="M 61.5,107.5 C 67.2959,112.479 72.6292,117.813 77.5,123.5C 76.9951,126.521 76.3284,129.521 75.5,132.5C 76.2186,134.728 77.552,136.561 79.5,138C 86.3382,142.002 93.6715,144.502 101.5,145.5C 102.209,146.404 103.209,146.737 104.5,146.5C 104.5,144.5 104.5,142.5 104.5,140.5C 104.539,139.417 104.873,138.417 105.5,137.5C 108.446,136.345 111.446,136.179 114.5,137C 124.307,141.382 134.307,145.382 144.5,149C 163.086,151.485 181.086,149.152 198.5,142C 206.412,137.424 213.078,131.424 218.5,124C 219.448,123.517 220.448,123.351 221.5,123.5C 221.66,125.153 222.326,126.486 223.5,127.5C 225.782,140.062 226.115,152.729 224.5,165.5C 223.566,168.617 222.233,171.617 220.5,174.5C 181.901,194.66 141.901,198.16 100.5,185C 89.1617,180.691 80.8284,173.191 75.5,162.5C 75.5,161.5 75.5,160.5 75.5,159.5C 75.2914,158.078 74.7914,156.745 74,155.5C 71.8816,156.283 70.3816,157.616 69.5,159.5C 58.524,163.52 47.1907,164.52 35.5,162.5C 30.4183,159.456 25.085,156.622 19.5,154C 17.0243,152.691 15.0243,150.858 13.5,148.5C 13.9767,147.522 14.6433,146.689 15.5,146C 22.2443,144.149 28.5776,141.649 34.5,138.5C 40.4922,137.503 46.4922,136.503 52.5,135.5C 55.5175,135.768 58.5175,136.102 61.5,136.5C 60.5392,133.574 59.8726,130.574 59.5,127.5C 59.3338,121.491 59.5005,115.491 60,109.5C 60.2784,108.584 60.7784,107.918 61.5,107.5 Z"/></g>
<g><path style="opacity:1" fill="#868788" d="M 104.5,140.5 C 104.5,142.5 104.5,144.5 104.5,146.5C 103.209,146.737 102.209,146.404 101.5,145.5C 103.028,144.198 104.028,142.531 104.5,140.5 Z"/></g>
<g><path style="opacity:1" fill="#f0f1f2" d="M 219.5,144.5 C 221.501,156.534 216.501,164.2 204.5,167.5C 200.762,166.931 197.595,165.264 195,162.5C 194.383,161.551 194.549,160.718 195.5,160C 205.001,156.97 213.001,151.804 219.5,144.5 Z"/></g>
<g><path style="opacity:1" fill="#c86147" d="M 223.5,127.5 C 224.943,128.335 225.943,129.668 226.5,131.5C 227.833,142.167 227.833,152.833 226.5,163.5C 225.818,164.243 225.151,164.909 224.5,165.5C 226.115,152.729 225.782,140.062 223.5,127.5 Z"/></g>
<g><path style="opacity:1" fill="#a15c4d" d="M 75.5,159.5 C 73.5,159.5 71.5,159.5 69.5,159.5C 70.3816,157.616 71.8816,156.283 74,155.5C 74.7914,156.745 75.2914,158.078 75.5,159.5 Z"/></g>
<g><path style="opacity:1" fill="#f7f7f7" d="M 120.5,157.5 C 135.928,163.406 151.928,166.739 168.5,167.5C 159.655,179.945 147.989,183.445 133.5,178C 125.238,173.641 120.905,166.807 120.5,157.5 Z"/></g>
<g><path style="opacity:1" fill="#d9694e" d="M 69.5,159.5 C 69.2786,160.735 68.6119,161.735 67.5,162.5C 64.8333,163.167 62.1667,163.833 59.5,164.5C 51.5894,164.91 43.9227,165.91 36.5,167.5C 35.5489,166.081 35.2155,164.415 35.5,162.5C 47.1907,164.52 58.524,163.52 69.5,159.5 Z"/></g>
<g><path style="opacity:1" fill="#f0643a" d="M 69.5,159.5 C 71.5,159.5 73.5,159.5 75.5,159.5C 75.5,160.5 75.5,161.5 75.5,162.5C 77.8675,176.868 84.2008,189.201 94.5,199.5C 95.4287,200.689 95.762,202.022 95.5,203.5C 96.552,203.351 97.552,203.517 98.5,204C 103.2,208.336 108.2,212.169 113.5,215.5C 113.5,217.5 113.5,219.5 113.5,221.5C 120.22,221.732 126.887,222.398 133.5,223.5C 153.561,226.435 172.394,223.102 190,213.5C 196.249,209.231 202.082,204.564 207.5,199.5C 208.833,199.5 210.167,199.5 211.5,199.5C 211.5,198.167 211.5,196.833 211.5,195.5C 213.604,195.201 215.604,195.534 217.5,196.5C 215.466,198.599 215.132,200.932 216.5,203.5C 218.614,200.061 220.281,196.394 221.5,192.5C 220.311,191.571 218.978,191.238 217.5,191.5C 217.5,190.167 217.5,188.833 217.5,187.5C 218.833,187.5 220.167,187.5 221.5,187.5C 221.5,186.167 221.5,184.833 221.5,183.5C 224.833,183.5 228.167,183.5 231.5,183.5C 231.5,186.167 231.5,188.833 231.5,191.5C 235.555,191.176 239.555,191.509 243.5,192.5C 240.941,196.763 240.941,201.097 243.5,205.5C 240.538,208.388 241.205,209.721 245.5,209.5C 245.263,210.791 245.596,211.791 246.5,212.5C 225.713,242.73 197.047,259.897 160.5,264C 112.064,266.367 74.8975,247.201 49,206.5C 45.5686,198.448 42.2353,190.448 39,182.5C 37.1067,177.692 36.2734,172.692 36.5,167.5C 43.9227,165.91 51.5894,164.91 59.5,164.5C 62.1667,163.833 64.8333,163.167 67.5,162.5C 68.6119,161.735 69.2786,160.735 69.5,159.5 Z"/></g>
<g><path style="opacity:1" fill="#fbfaf8" d="M 75.5,162.5 C 80.8284,173.191 89.1617,180.691 100.5,185C 141.901,198.16 181.901,194.66 220.5,174.5C 218.615,182.691 214.448,190.024 208,196.5C 207.517,197.448 207.351,198.448 207.5,199.5C 202.082,204.564 196.249,209.231 190,213.5C 172.394,223.102 153.561,226.435 133.5,223.5C 126.925,220.844 120.258,218.177 113.5,215.5C 108.2,212.169 103.2,208.336 98.5,204C 97.552,203.517 96.552,203.351 95.5,203.5C 95.762,202.022 95.4287,200.689 94.5,199.5C 84.2008,189.201 77.8675,176.868 75.5,162.5 Z"/></g>
<g><path style="opacity:1" fill="#e56f4c" d="M 113.5,215.5 C 120.258,218.177 126.925,220.844 133.5,223.5C 126.887,222.398 120.22,221.732 113.5,221.5C 113.5,219.5 113.5,217.5 113.5,215.5 Z"/></g>
</svg>
