<?xml version="1.0" encoding="UTF-8"?>
<!DOCTYPE svg PUBLIC "-//W3C//DTD SVG 1.1//EN" "http://www.w3.org/Graphics/SVG/1.1/DTD/svg11.dtd">
<svg xmlns="http://www.w3.org/2000/svg" version="1.1" width="1920px" height="1280px" style="shape-rendering:geometricPrecision; text-rendering:geometricPrecision; image-rendering:optimizeQuality; fill-rule:evenodd; clip-rule:evenodd" xmlns:xlink="http://www.w3.org/1999/xlink">
<g><path style="opacity:1" fill="#fffefe" d="M -0.5,-0.5 C 639.5,-0.5 1279.5,-0.5 1919.5,-0.5C 1919.5,426.167 1919.5,852.833 1919.5,1279.5C 1279.5,1279.5 639.5,1279.5 -0.5,1279.5C -0.5,852.833 -0.5,426.167 -0.5,-0.5 Z"/></g>
<g><path style="opacity:1" fill="#fff8f8" d="M 1563.5,927.5 C 1565.62,926.969 1567.12,925.635 1568,923.5C 1630.53,818.716 1656.53,705.383 1646,583.5C 1623.03,414.979 1542.53,281.813 1404.5,184C 1250.07,83.2863 1085.41,62.6196 910.5,122C 756.576,181.257 648.076,287.09 585,439.5C 521.772,610.321 537.106,773.654 631,929.5C 706.028,1045.12 809.194,1124.29 940.5,1167C 1053.67,1201.25 1166,1198.59 1277.5,1159C 1324.55,1142.47 1368.55,1120.14 1409.5,1092C 1412.71,1089.95 1415.38,1087.45 1417.5,1084.5C 1420.86,1085.87 1421.52,1087.7 1419.5,1090C 1288.37,1181.53 1144.04,1212.53 986.5,1183C 832.419,1147.51 712.585,1063.67 627,931.5C 542.194,791.524 521.528,642.524 565,484.5C 615.89,323.616 717.39,206.782 869.5,134C 1014.86,70.6513 1161.19,68.318 1308.5,127C 1433.44,181.607 1527.94,269.107 1592,389.5C 1676.14,563.332 1673.14,735.665 1583,906.5C 1578,914.833 1573,923.167 1568,931.5C 1566.33,930.267 1564.83,928.933 1563.5,927.5 Z"/></g>
<g><path style="opacity:1" fill="#fff7f0" d="M 1561.5,926.5 C 1559.61,925.396 1557.94,924.063 1556.5,922.5C 1557.38,922.631 1558.04,922.298 1558.5,921.5C 1623.95,812.601 1649.95,695.768 1636.5,571C 1608.28,404.135 1523.61,274.135 1382.5,181C 1229.58,88.1247 1069.25,72.7914 901.5,135C 759.219,193.948 657.219,293.948 595.5,435C 593.02,444.098 589.853,453.265 586,462.5C 528.865,637.891 552.865,801.224 658,952.5C 760.894,1090.01 897.394,1166.51 1067.5,1182C 1190.63,1185.65 1303.63,1152.65 1406.5,1083C 1407.82,1082.18 1408.49,1081.02 1408.5,1079.5C 1410.48,1080.47 1412.48,1081.47 1414.5,1082.5C 1346.41,1130.69 1272.25,1162.35 1192,1177.5C 1128.84,1190.82 1065.68,1190.82 1002.5,1177.5C 899.381,1157.94 809.048,1112.77 731.5,1042C 636.997,955.172 578.997,848.338 557.5,721.5C 538.467,579.467 567.634,450.467 645,334.5C 733.503,208.628 852.003,131.128 1000.5,102C 1159.07,75.6877 1301.74,111.021 1428.5,208C 1558.62,311.429 1630.95,445.596 1645.5,610.5C 1647.78,724.261 1619.78,829.595 1561.5,926.5 Z"/></g>
<g><path style="opacity:1" fill="#fff3eb" d="M 1556.5,922.5 C 1554.97,922.573 1553.97,921.906 1553.5,920.5C 1599.57,843.012 1626.74,759.345 1635,669.5C 1638.75,500.994 1579.25,359.494 1456.5,245C 1328.47,129.908 1178.47,85.2409 1006.5,111C 874.253,136.272 766.087,199.772 682,301.5C 596.239,409.127 556.239,532.127 562,670.5C 570.897,788.487 612.897,892.154 688,981.5C 806.42,1117.88 956.087,1182.88 1137,1176.5C 1225.6,1166.49 1307.76,1138.33 1383.5,1092C 1390.41,1087.39 1397.08,1082.56 1403.5,1077.5C 1405.4,1077.8 1407.07,1078.46 1408.5,1079.5C 1408.49,1081.02 1407.82,1082.18 1406.5,1083C 1303.63,1152.65 1190.63,1185.65 1067.5,1182C 897.394,1166.51 760.894,1090.01 658,952.5C 552.865,801.224 528.865,637.891 586,462.5C 589.853,453.265 593.02,444.098 595.5,435C 657.219,293.948 759.219,193.948 901.5,135C 1069.25,72.7914 1229.58,88.1247 1382.5,181C 1523.61,274.135 1608.28,404.135 1636.5,571C 1649.95,695.768 1623.95,812.601 1558.5,921.5C 1558.04,922.298 1557.38,922.631 1556.5,922.5 Z"/></g>
<g><path style="opacity:1" fill="#ffefe5" d="M 1553.5,920.5 C 1551.57,919.89 1549.9,918.89 1548.5,917.5C 1599.63,832.169 1626.96,739.669 1630.5,640C 1626.42,505.306 1579.92,388.139 1491,288.5C 1407.69,196.89 1305.02,138.89 1183,114.5C 1062.66,97.4334 948.824,117.6 841.5,175C 802.085,197.445 766.585,223.612 735,253.5C 734.536,254.094 734.369,254.761 734.5,255.5C 688.314,301.234 650.98,352.234 622.5,408.5C 622.043,409.298 621.376,409.631 620.5,409.5C 601.752,447.253 587.918,486.586 579,527.5C 544.817,702.939 586.817,857.606 705,991.5C 822.18,1118.39 967.514,1178.39 1141,1171.5C 1225.57,1160.09 1304.4,1132.59 1377.5,1089C 1384.41,1084.39 1391.08,1079.56 1397.5,1074.5C 1399.75,1075.13 1401.75,1076.13 1403.5,1077.5C 1397.08,1082.56 1390.41,1087.39 1383.5,1092C 1307.76,1138.33 1225.6,1166.49 1137,1176.5C 956.087,1182.88 806.42,1117.88 688,981.5C 612.897,892.154 570.897,788.487 562,670.5C 556.239,532.127 596.239,409.127 682,301.5C 766.087,199.772 874.253,136.272 1006.5,111C 1178.47,85.2409 1328.47,129.908 1456.5,245C 1579.25,359.494 1638.75,500.994 1635,669.5C 1626.74,759.345 1599.57,843.012 1553.5,920.5 Z"/></g>
<g><path style="opacity:1" fill="#ffebdc" d="M 1546.5,916.5 C 1544.18,916.008 1542.18,915.008 1540.5,913.5C 1541.38,913.631 1542.04,913.298 1542.5,912.5C 1597.25,821.826 1624.09,723.492 1623,617.5C 1613.85,493.262 1567.85,385.262 1485,293.5C 1410,210.066 1317.83,154.899 1208.5,128C 1078.05,101.634 954.717,120.634 838.5,185C 715.297,258.158 633.464,363.658 593,501.5C 549.676,671.567 582.009,825.233 690,962.5C 735.712,1017.58 789.212,1063.08 850.5,1099C 946.703,1151.97 1049.37,1172.64 1158.5,1161C 1240.4,1148.26 1316.06,1119.6 1385.5,1075C 1387.06,1074.24 1388.06,1073.07 1388.5,1071.5C 1390.42,1072.36 1392.42,1073.03 1394.5,1073.5C 1391.87,1077.01 1388.53,1079.84 1384.5,1082C 1296.28,1136.97 1200.78,1166.81 1098,1171.5C 959.214,1165.91 840.047,1116.74 740.5,1024C 638.997,928.828 582.163,811.995 570,673.5C 564.792,581.216 581.958,493.716 621.5,411C 620.944,410.617 620.611,410.117 620.5,409.5C 621.376,409.631 622.043,409.298 622.5,408.5C 650.98,352.234 688.314,301.234 734.5,255.5C 769.488,223.92 807.154,196.754 847.5,174C 973.649,108.238 1105.65,94.2376 1243.5,132C 1323.24,156.707 1393.57,197.707 1454.5,255C 1564.94,358.305 1623.27,486.639 1629.5,640C 1624.96,738.542 1597.3,830.709 1546.5,916.5 Z"/></g>
<g><path style="opacity:1" fill="#ffe8d8" d="M 1540.5,913.5 C 1539.21,913.737 1538.21,913.404 1537.5,912.5C 1567.99,863.563 1589.99,811.563 1603.5,756.5C 1615.94,711.253 1621.61,665.086 1620.5,618C 1610.56,493.292 1563.06,384.459 1478,291.5C 1409.11,216.652 1325.94,165.152 1228.5,137C 1084.48,101.573 949.15,122.239 822.5,199C 691.352,284.215 611.852,404.715 584,560.5C 566.426,675.598 585.76,783.598 642,884.5C 696.802,978.636 771.968,1051.8 867.5,1104C 946.999,1143.95 1031.17,1163.45 1120,1162.5C 1202.12,1154.46 1279.62,1130.63 1352.5,1091C 1364.16,1084.67 1374.82,1077.84 1384.5,1070.5C 1385.71,1071.23 1387.04,1071.57 1388.5,1071.5C 1388.06,1073.07 1387.06,1074.24 1385.5,1075C 1316.06,1119.6 1240.4,1148.26 1158.5,1161C 1049.37,1172.64 946.703,1151.97 850.5,1099C 789.212,1063.08 735.712,1017.58 690,962.5C 582.009,825.233 549.676,671.567 593,501.5C 633.464,363.658 715.297,258.158 838.5,185C 954.717,120.634 1078.05,101.634 1208.5,128C 1317.83,154.899 1410,210.066 1485,293.5C 1567.85,385.262 1613.85,493.262 1623,617.5C 1624.09,723.492 1597.25,821.826 1542.5,912.5C 1542.04,913.298 1541.38,913.631 1540.5,913.5 Z"/></g>
<g><path style="opacity:1" fill="#ffe4d5" d="M 1537.5,912.5 C 1536.51,912.672 1535.84,912.338 1535.5,911.5C 1585.81,828.233 1613.14,737.899 1617.5,640.5C 1612.72,501.529 1562.05,382.695 1465.5,284C 1378.85,193.012 1272.19,140.012 1145.5,125C 999.035,114.271 870.035,155.937 758.5,250C 635.07,362.095 576.237,501.928 582,669.5C 585.326,734.473 601.326,796.139 630,854.5C 658.134,912.86 695.467,963.86 742,1007.5C 854.556,1117.48 989.723,1166.98 1147.5,1156C 1229.88,1144.55 1306.21,1116.88 1376.5,1073C 1378.06,1072.24 1379.06,1071.07 1379.5,1069.5C 1381.22,1069.63 1382.88,1069.96 1384.5,1070.5C 1374.82,1077.84 1364.16,1084.67 1352.5,1091C 1279.62,1130.63 1202.12,1154.46 1120,1162.5C 1031.17,1163.45 946.999,1143.95 867.5,1104C 771.968,1051.8 696.802,978.636 642,884.5C 585.76,783.598 566.426,675.598 584,560.5C 611.852,404.715 691.352,284.215 822.5,199C 949.15,122.239 1084.48,101.573 1228.5,137C 1325.94,165.152 1409.11,216.652 1478,291.5C 1563.06,384.459 1610.56,493.292 1620.5,618C 1621.61,665.086 1615.94,711.253 1603.5,756.5C 1589.99,811.563 1567.99,863.563 1537.5,912.5 Z"/></g>
<g><path style="opacity:1" fill="#ffe2d1" d="M 1535.5,911.5 C 1533.21,911.405 1531.21,910.738 1529.5,909.5C 1545.23,886.047 1558.4,861.047 1569,834.5C 1595.22,772.295 1609.72,707.629 1612.5,640.5C 1607.01,495.375 1552.01,372.875 1447.5,273C 1373.25,201.694 1284.92,155.694 1182.5,135C 1003.22,110.532 850.723,162.032 725,289.5C 623.33,401.158 577.663,532.825 588,684.5C 599.371,790.022 639.205,882.855 707.5,963C 761.936,1028.6 828.936,1078.93 908.5,1114C 977.348,1142.47 1048.68,1155.64 1122.5,1153.5C 1196.79,1146.46 1267.13,1125.96 1333.5,1092C 1347.2,1085.1 1360.2,1077.27 1372.5,1068.5C 1374.76,1069.22 1377.1,1069.55 1379.5,1069.5C 1379.06,1071.07 1378.06,1072.24 1376.5,1073C 1306.21,1116.88 1229.88,1144.55 1147.5,1156C 989.723,1166.98 854.556,1117.48 742,1007.5C 695.467,963.86 658.134,912.86 630,854.5C 601.326,796.139 585.326,734.473 582,669.5C 576.237,501.928 635.07,362.095 758.5,250C 870.035,155.937 999.035,114.271 1145.5,125C 1272.19,140.012 1378.85,193.012 1465.5,284C 1562.05,382.695 1612.72,501.529 1617.5,640.5C 1613.14,737.899 1585.81,828.233 1535.5,911.5 Z"/></g>
<g><path style="opacity:1" fill="#ffe1cc" d="M 1529.5,909.5 C 1528.51,909.672 1527.84,909.338 1527.5,908.5C 1577.68,826.122 1605.01,736.622 1609.5,640C 1605.45,516.369 1562.95,407.536 1482,313.5C 1446.99,273.466 1407.49,238.966 1363.5,210C 1229.19,126.79 1087.02,109.29 937,157.5C 798.082,206.418 697.082,297.418 634,430.5C 589.892,531.24 578.559,635.574 600,743.5C 621.392,832.295 662.725,910.295 724,977.5C 784.094,1043.27 855.76,1091.94 939,1123.5C 953.966,1127.37 969.133,1131.54 984.5,1136C 1035.1,1149.38 1086.43,1153.72 1138.5,1149C 1220.84,1138.5 1297.18,1111.67 1367.5,1068.5C 1369.17,1068.5 1370.83,1068.5 1372.5,1068.5C 1360.2,1077.27 1347.2,1085.1 1333.5,1092C 1267.13,1125.96 1196.79,1146.46 1122.5,1153.5C 1048.68,1155.64 977.348,1142.47 908.5,1114C 828.936,1078.93 761.936,1028.6 707.5,963C 639.205,882.855 599.371,790.022 588,684.5C 577.663,532.825 623.33,401.158 725,289.5C 850.723,162.032 1003.22,110.532 1182.5,135C 1284.92,155.694 1373.25,201.694 1447.5,273C 1552.01,372.875 1607.01,495.375 1612.5,640.5C 1609.72,707.629 1595.22,772.295 1569,834.5C 1558.4,861.047 1545.23,886.047 1529.5,909.5 Z"/></g>
<g><path style="opacity:1" fill="#ffdec9" d="M 1527.5,908.5 C 1525.9,908.768 1524.57,908.434 1523.5,907.5C 1525.62,906.969 1527.12,905.635 1528,903.5C 1571.81,829.748 1597.81,750.081 1606,664.5C 1608.74,533.711 1568.08,418.711 1484,319.5C 1432.17,258.322 1370.01,210.822 1297.5,177C 1202.23,134.185 1103.23,122.851 1000.5,143C 861.925,172.9 753.425,245.733 675,361.5C 605.686,469.347 579.686,587.347 597,715.5C 618.677,831.379 672.51,929.213 758.5,1009C 864.829,1107.66 990.496,1153.66 1135.5,1147C 1216.85,1137.11 1292.52,1111.11 1362.5,1069C 1358.18,1068.5 1353.85,1068.33 1349.5,1068.5C 1348.5,1068.5 1347.5,1068.5 1346.5,1068.5C 1353.5,1067.17 1360.5,1067.17 1367.5,1068.5C 1297.18,1111.67 1220.84,1138.5 1138.5,1149C 1086.43,1153.72 1035.1,1149.38 984.5,1136C 969.133,1131.54 953.966,1127.37 939,1123.5C 855.76,1091.94 784.094,1043.27 724,977.5C 662.725,910.295 621.392,832.295 600,743.5C 578.559,635.574 589.892,531.24 634,430.5C 697.082,297.418 798.082,206.418 937,157.5C 1087.02,109.29 1229.19,126.79 1363.5,210C 1407.49,238.966 1446.99,273.466 1482,313.5C 1562.95,407.536 1605.45,516.369 1609.5,640C 1605.01,736.622 1577.68,826.122 1527.5,908.5 Z"/></g>
<g><path style="opacity:1" fill="#ffdcc4" d="M 1523.5,907.5 C 1521.26,907.795 1519.26,907.461 1517.5,906.5C 1568.25,824.911 1595.91,735.911 1600.5,639.5C 1595.94,515.579 1552.78,407.579 1471,315.5C 1401.95,236.864 1316.79,183.364 1215.5,155C 1083.41,124.683 958.743,143.35 841.5,211C 704.311,296.752 624.478,420.252 602,581.5C 589.287,690.274 610.954,791.607 667,885.5C 730.661,989.158 818.828,1063.99 931.5,1110C 997.654,1135.21 1065.99,1145.21 1136.5,1140C 1212.48,1130.39 1283.48,1106.56 1349.5,1068.5C 1353.85,1068.33 1358.18,1068.5 1362.5,1069C 1292.52,1111.11 1216.85,1137.11 1135.5,1147C 990.496,1153.66 864.829,1107.66 758.5,1009C 672.51,929.213 618.677,831.379 597,715.5C 579.686,587.347 605.686,469.347 675,361.5C 753.425,245.733 861.925,172.9 1000.5,143C 1103.23,122.851 1202.23,134.185 1297.5,177C 1370.01,210.822 1432.17,258.322 1484,319.5C 1568.08,418.711 1608.74,533.711 1606,664.5C 1597.81,750.081 1571.81,829.748 1528,903.5C 1527.12,905.635 1525.62,906.969 1523.5,907.5 Z"/></g>
<g><path style="opacity:1" fill="#ffd7be" d="M 1517.5,906.5 C 1515.38,906.675 1513.38,906.341 1511.5,905.5C 1557.09,831.912 1584.25,751.912 1593,665.5C 1595.93,532.58 1553.26,416.913 1465,318.5C 1395.76,240.439 1310.59,187.606 1209.5,160C 1076.45,130.954 951.778,151.62 835.5,222C 703.931,308.062 628.097,429.562 608,586.5C 597.854,674.155 611.52,757.822 649,837.5C 704.833,950.667 789.333,1035.17 902.5,1091C 983.389,1128.59 1068.06,1141.93 1156.5,1131C 1184.66,1126.38 1212.33,1119.71 1239.5,1111C 1238.55,1110.52 1237.55,1110.35 1236.5,1110.5C 1261.09,1107.71 1283.09,1098.54 1302.5,1083C 1316.11,1074.85 1330.77,1070.02 1346.5,1068.5C 1347.5,1068.5 1348.5,1068.5 1349.5,1068.5C 1283.48,1106.56 1212.48,1130.39 1136.5,1140C 1065.99,1145.21 997.654,1135.21 931.5,1110C 818.828,1063.99 730.661,989.158 667,885.5C 610.954,791.607 589.287,690.274 602,581.5C 624.478,420.252 704.311,296.752 841.5,211C 958.743,143.35 1083.41,124.683 1215.5,155C 1316.79,183.364 1401.95,236.864 1471,315.5C 1552.78,407.579 1595.94,515.579 1600.5,639.5C 1595.91,735.911 1568.25,824.911 1517.5,906.5 Z"/></g>
<g><path style="opacity:1" fill="#ffd6b9" d="M 1511.5,905.5 C 1509.59,905.784 1507.92,905.451 1506.5,904.5C 1507.68,904.719 1508.68,904.386 1509.5,903.5C 1560.05,822.517 1587.39,734.517 1591.5,639.5C 1587.32,515.213 1543.49,407.546 1460,316.5C 1393.86,243.334 1313.36,192.834 1218.5,165C 1084.31,132.991 958.646,151.658 841.5,221C 732.998,289.788 660.831,385.622 625,508.5C 581.959,681.33 619.625,833.663 738,965.5C 784.472,1016 838.306,1056.5 899.5,1087C 968.542,1119.48 1041.21,1134.81 1117.5,1133C 1156.55,1130.16 1194.55,1122.66 1231.5,1110.5C 1233.17,1110.5 1234.83,1110.5 1236.5,1110.5C 1237.55,1110.35 1238.55,1110.52 1239.5,1111C 1212.33,1119.71 1184.66,1126.38 1156.5,1131C 1068.06,1141.93 983.389,1128.59 902.5,1091C 789.333,1035.17 704.833,950.667 649,837.5C 611.52,757.822 597.854,674.155 608,586.5C 628.097,429.562 703.931,308.062 835.5,222C 951.778,151.62 1076.45,130.954 1209.5,160C 1310.59,187.606 1395.76,240.439 1465,318.5C 1553.26,416.913 1595.93,532.58 1593,665.5C 1584.25,751.912 1557.09,831.912 1511.5,905.5 Z"/></g>
<g><path style="opacity:1" fill="#ffd3b7" d="M 1506.5,904.5 C 1506.17,904.5 1505.83,904.5 1505.5,904.5C 1556.36,823.258 1584.03,734.925 1588.5,639.5C 1584.65,525.391 1546.48,424.725 1474,337.5C 1423.78,276.995 1363.28,229.828 1292.5,196C 1203.02,154.797 1109.68,142.797 1012.5,160C 862.104,189.707 748.27,270.874 671,403.5C 611.578,514.949 596.244,632.283 625,755.5C 649.024,840.929 692.024,914.929 754,977.5C 816.797,1042.17 891.63,1087.33 978.5,1113C 1048.35,1133.36 1118.69,1135.36 1189.5,1119C 1199.88,1116.49 1210.21,1113.82 1220.5,1111C 1219.26,1110.77 1218.26,1110.27 1217.5,1109.5C 1222.13,1110.23 1226.8,1110.56 1231.5,1110.5C 1194.55,1122.66 1156.55,1130.16 1117.5,1133C 1041.21,1134.81 968.542,1119.48 899.5,1087C 838.306,1056.5 784.472,1016 738,965.5C 619.625,833.663 581.959,681.33 625,508.5C 660.831,385.622 732.998,289.788 841.5,221C 958.646,151.658 1084.31,132.991 1218.5,165C 1313.36,192.834 1393.86,243.334 1460,316.5C 1543.49,407.546 1587.32,515.213 1591.5,639.5C 1587.39,734.517 1560.05,822.517 1509.5,903.5C 1508.68,904.386 1507.68,904.719 1506.5,904.5 Z"/></g>
<g><path style="opacity:1" fill="#ffd1b3" d="M 1505.5,904.5 C 1503.17,904.5 1500.83,904.5 1498.5,904.5C 1554.92,817.368 1582.76,721.701 1582,617.5C 1573.31,509.74 1533.64,415.074 1463,333.5C 1424.83,289.64 1381,252.807 1331.5,223C 1220.69,158.924 1103.03,142.258 978.5,173C 843.282,209.994 741.448,289.494 673,411.5C 619.346,515.388 604.013,624.721 627,739.5C 652.625,840.36 703.791,925.527 780.5,995C 869.879,1077.26 975.379,1120.43 1097,1124.5C 1134.17,1124.04 1170.67,1118.87 1206.5,1109C 1205.94,1108.62 1205.61,1108.12 1205.5,1107.5C 1209.38,1108.8 1213.38,1109.47 1217.5,1109.5C 1218.26,1110.27 1219.26,1110.77 1220.5,1111C 1210.21,1113.82 1199.88,1116.49 1189.5,1119C 1118.69,1135.36 1048.35,1133.36 978.5,1113C 891.63,1087.33 816.797,1042.17 754,977.5C 692.024,914.929 649.024,840.929 625,755.5C 596.244,632.283 611.578,514.949 671,403.5C 748.27,270.874 862.104,189.707 1012.5,160C 1109.68,142.797 1203.02,154.797 1292.5,196C 1363.28,229.828 1423.78,276.995 1474,337.5C 1546.48,424.725 1584.65,525.391 1588.5,639.5C 1584.03,734.925 1556.36,823.258 1505.5,904.5 Z"/></g>
<g><path style="opacity:1" fill="#ffceaf" d="M 1498.5,904.5 C 1497.5,904.5 1496.5,904.5 1495.5,904.5C 1547.77,823.855 1576.1,735.355 1580.5,639C 1576.02,519.951 1534.19,416.451 1455,328.5C 1389.2,254.647 1309.04,203.813 1214.5,176C 1089.51,145.956 970.842,161.956 858.5,224C 746.515,290.424 672.349,386.258 636,511.5C 596.226,667.341 625.893,807.674 725,932.5C 779.443,999.954 846.276,1051.12 925.5,1086C 988.858,1112.74 1054.86,1124.41 1123.5,1121C 1148.85,1118.91 1173.85,1114.75 1198.5,1108.5C 1199.71,1108.25 1200.38,1107.59 1200.5,1106.5C 1202.12,1107.04 1203.78,1107.37 1205.5,1107.5C 1205.61,1108.12 1205.94,1108.62 1206.5,1109C 1170.67,1118.87 1134.17,1124.04 1097,1124.5C 975.379,1120.43 869.879,1077.26 780.5,995C 703.791,925.527 652.625,840.36 627,739.5C 604.013,624.721 619.346,515.388 673,411.5C 741.448,289.494 843.282,209.994 978.5,173C 1103.03,142.258 1220.69,158.924 1331.5,223C 1381,252.807 1424.83,289.64 1463,333.5C 1533.64,415.074 1573.31,509.74 1582,617.5C 1582.76,721.701 1554.92,817.368 1498.5,904.5 Z"/></g>
<g><path style="opacity:1" fill="#ffcbab" d="M 1495.5,904.5 C 1492.83,904.5 1490.17,904.5 1487.5,904.5C 1544.73,818.632 1573.23,723.966 1573,620.5C 1564.08,506.025 1520.41,407.358 1442,324.5C 1378.43,255.337 1301.27,207.837 1210.5,182C 1082.68,151.968 962.35,170.302 849.5,237C 716.629,322.807 642.462,444.973 627,603.5C 619.813,698.416 640.48,786.75 689,868.5C 735.5,944.333 796.667,1005.5 872.5,1052C 961.536,1104.27 1057.2,1123.61 1159.5,1110C 1168.72,1108.42 1177.89,1106.59 1187,1104.5C 1188.38,1104.32 1189.21,1103.65 1189.5,1102.5C 1193.01,1104.23 1196.68,1105.56 1200.5,1106.5C 1200.38,1107.59 1199.71,1108.25 1198.5,1108.5C 1173.85,1114.75 1148.85,1118.91 1123.5,1121C 1054.86,1124.41 988.858,1112.74 925.5,1086C 846.276,1051.12 779.443,999.954 725,932.5C 625.893,807.674 596.226,667.341 636,511.5C 672.349,386.258 746.515,290.424 858.5,224C 970.842,161.956 1089.51,145.956 1214.5,176C 1309.04,203.813 1389.2,254.647 1455,328.5C 1534.19,416.451 1576.02,519.951 1580.5,639C 1576.1,735.355 1547.77,823.855 1495.5,904.5 Z"/></g>
<g><path style="opacity:1" fill="#ffc9a5" d="M 1487.5,904.5 C 1485.62,905.341 1483.62,905.675 1481.5,905.5C 1542.46,816.038 1571.29,717.038 1568,608.5C 1556.61,500.423 1513.95,407.089 1440,328.5C 1376.75,260.149 1300.25,212.816 1210.5,186.5C 1082.54,156.136 962.204,174.636 849.5,242C 736.04,315.304 665.54,418.471 638,551.5C 617.194,663.455 635.527,768.455 693,866.5C 745.207,952.711 816.041,1018.88 905.5,1065C 965.806,1094.16 1029.47,1109.66 1096.5,1111.5C 1126.06,1111.11 1155.06,1107.44 1183.5,1100.5C 1185.5,1101.17 1187.5,1101.83 1189.5,1102.5C 1189.21,1103.65 1188.38,1104.32 1187,1104.5C 1177.89,1106.59 1168.72,1108.42 1159.5,1110C 1057.2,1123.61 961.536,1104.27 872.5,1052C 796.667,1005.5 735.5,944.333 689,868.5C 640.48,786.75 619.813,698.416 627,603.5C 642.462,444.973 716.629,322.807 849.5,237C 962.35,170.302 1082.68,151.968 1210.5,182C 1301.27,207.837 1378.43,255.337 1442,324.5C 1520.41,407.358 1564.08,506.025 1573,620.5C 1573.23,723.966 1544.73,818.632 1487.5,904.5 Z"/></g>
<g><path style="opacity:1" fill="#ffc7a2" d="M 1481.5,905.5 C 1480.39,905.557 1479.39,905.89 1478.5,906.5C 1528.56,831.824 1557.73,749.49 1566,659.5C 1568.57,571.31 1547.23,489.977 1502,415.5C 1455.36,339.857 1393.86,279.357 1317.5,234C 1203.75,170.89 1084.41,157.89 959.5,195C 819.22,240.927 720.72,332.427 664,469.5C 602.955,643.301 631.288,799.968 749,939.5C 810.187,1009.36 884.187,1059.36 971,1089.5C 971.414,1089.04 971.914,1088.71 972.5,1088.5C 1041.06,1111.18 1110.4,1114.51 1180.5,1098.5C 1181.71,1098.93 1182.71,1099.6 1183.5,1100.5C 1155.06,1107.44 1126.06,1111.11 1096.5,1111.5C 1029.47,1109.66 965.806,1094.16 905.5,1065C 816.041,1018.88 745.207,952.711 693,866.5C 635.527,768.455 617.194,663.455 638,551.5C 665.54,418.471 736.04,315.304 849.5,242C 962.204,174.636 1082.54,156.136 1210.5,186.5C 1300.25,212.816 1376.75,260.149 1440,328.5C 1513.95,407.089 1556.61,500.423 1568,608.5C 1571.29,717.038 1542.46,816.038 1481.5,905.5 Z"/></g>
<g><path style="opacity:1" fill="#ffc49e" d="M 1478.5,906.5 C 1475.14,907.04 1471.8,907.706 1468.5,908.5C 1520.6,833.365 1550.76,750.365 1559,659.5C 1561.19,553.402 1530.19,458.402 1466,374.5C 1410.33,301.488 1340.16,247.321 1255.5,212C 1170.68,179.601 1083.68,173.267 994.5,193C 854.796,227.73 751.962,308.897 686,436.5C 638.423,537.277 627.756,641.61 654,749.5C 675.189,823.914 711.856,889.248 764,945.5C 813.73,999.945 872.563,1041.44 940.5,1070C 1004.44,1096.25 1070.77,1105.92 1139.5,1099C 1150.07,1097.72 1160.4,1095.88 1170.5,1093.5C 1173.82,1095.14 1177.15,1096.8 1180.5,1098.5C 1110.4,1114.51 1041.06,1111.18 972.5,1088.5C 971.914,1088.71 971.414,1089.04 971,1089.5C 884.187,1059.36 810.187,1009.36 749,939.5C 631.288,799.968 602.955,643.301 664,469.5C 720.72,332.427 819.22,240.927 959.5,195C 1084.41,157.89 1203.75,170.89 1317.5,234C 1393.86,279.357 1455.36,339.857 1502,415.5C 1547.23,489.977 1568.57,571.31 1566,659.5C 1557.73,749.49 1528.56,831.824 1478.5,906.5 Z"/></g>
<g><path style="opacity:1" fill="#ffc29b" d="M 1468.5,908.5 C 1467.5,908.5 1466.5,908.5 1465.5,908.5C 1528.25,820.748 1558.75,722.748 1557,614.5C 1548.91,522.849 1516.58,441.182 1460,369.5C 1405.14,300.155 1336.97,248.322 1255.5,214C 1148.75,173.714 1041.42,173.38 933.5,213C 808.667,263.167 721.167,350.667 671,475.5C 613.111,643.533 640.777,795.533 754,931.5C 806.944,992.785 870.777,1038.95 945.5,1070C 1017,1098.58 1090.67,1106.25 1166.5,1093C 1167.42,1092.72 1168.08,1092.22 1168.5,1091.5C 1169.5,1091.83 1170.17,1092.5 1170.5,1093.5C 1160.4,1095.88 1150.07,1097.72 1139.5,1099C 1070.77,1105.92 1004.44,1096.25 940.5,1070C 872.563,1041.44 813.73,999.945 764,945.5C 711.856,889.248 675.189,823.914 654,749.5C 627.756,641.61 638.423,537.277 686,436.5C 751.962,308.897 854.796,227.73 994.5,193C 1083.68,173.267 1170.68,179.601 1255.5,212C 1340.16,247.321 1410.33,301.488 1466,374.5C 1530.19,458.402 1561.19,553.402 1559,659.5C 1550.76,750.365 1520.6,833.365 1468.5,908.5 Z"/></g>
<g><path style="opacity:1" fill="#ffc097" d="M 1465.5,908.5 C 1463.24,909.219 1460.9,909.552 1458.5,909.5C 1520.58,823.759 1551.75,727.759 1552,621.5C 1545.52,531.038 1514.86,450.038 1460,378.5C 1408.46,311.266 1344.29,260.099 1267.5,225C 1179.92,187.711 1089.59,179.378 996.5,200C 863.48,232.397 764.147,308.397 698.5,428C 645.437,531.542 633.604,640.376 663,754.5C 690.589,842.399 738.756,916.899 807.5,978C 878.127,1041.3 960.794,1079.3 1055.5,1092C 1091.56,1096.33 1127.23,1094.83 1162.5,1087.5C 1164.5,1088.83 1166.5,1090.17 1168.5,1091.5C 1168.08,1092.22 1167.42,1092.72 1166.5,1093C 1090.67,1106.25 1017,1098.58 945.5,1070C 870.777,1038.95 806.944,992.785 754,931.5C 640.777,795.533 613.111,643.533 671,475.5C 721.167,350.667 808.667,263.167 933.5,213C 1041.42,173.38 1148.75,173.714 1255.5,214C 1336.97,248.322 1405.14,300.155 1460,369.5C 1516.58,441.182 1548.91,522.849 1557,614.5C 1558.75,722.748 1528.25,820.748 1465.5,908.5 Z"/></g>
<g><path style="opacity:1" fill="#ffbc92" d="M 1458.5,909.5 C 1455.95,910.255 1453.28,910.922 1450.5,911.5C 1450.89,909.821 1451.39,908.154 1452,906.5C 1472.86,880.128 1490.2,851.461 1504,820.5C 1504.72,816.435 1506.38,812.769 1509,809.5C 1514.71,795.317 1520.04,780.984 1525,766.5C 1562.01,648.265 1549.01,535.931 1486,429.5C 1484.1,424.703 1481.43,420.37 1478,416.5C 1475.57,410.935 1472.24,405.935 1468,401.5C 1459.08,386.4 1448.41,372.733 1436,360.5C 1435.67,359.5 1435.33,358.5 1435,357.5C 1414.67,336.499 1393.84,316.332 1372.5,297C 1365.86,292.507 1359.52,287.673 1353.5,282.5C 1341.78,274.422 1330.11,266.422 1318.5,258.5C 1311.24,254.894 1304.24,250.894 1297.5,246.5C 1284.37,241.102 1271.71,234.936 1259.5,228C 1242.04,221.188 1224.37,215.021 1206.5,209.5C 1080.74,179.626 963.077,198.46 853.5,266C 824.529,286.396 797.363,309.229 772,334.5C 771.333,335.833 770.667,337.167 770,338.5C 762.296,346.308 754.963,354.308 748,362.5C 683.845,446.634 652.178,541.967 653,648.5C 654.779,688.72 661.446,728.054 673,766.5C 678.117,777.85 682.451,789.516 686,801.5C 692.936,813.706 699.102,826.373 704.5,839.5C 710.95,848.736 716.616,858.403 721.5,868.5C 732.303,884.122 743.469,899.456 755,914.5C 762.171,922.306 769.171,930.306 776,938.5C 786.167,947.333 795.667,956.833 804.5,967C 815.883,976.725 827.217,986.392 838.5,996C 887.882,1033.35 943.216,1060.35 1004.5,1077C 1026.62,1081.73 1048.95,1085.06 1071.5,1087C 1098.92,1088.22 1126.25,1087.22 1153.5,1084C 1154.38,1083.29 1155.05,1082.46 1155.5,1081.5C 1157.86,1083.53 1160.19,1085.53 1162.5,1087.5C 1127.23,1094.83 1091.56,1096.33 1055.5,1092C 960.794,1079.3 878.127,1041.3 807.5,978C 738.756,916.899 690.589,842.399 663,754.5C 633.604,640.376 645.437,531.542 698.5,428C 764.147,308.397 863.48,232.397 996.5,200C 1089.59,179.378 1179.92,187.711 1267.5,225C 1344.29,260.099 1408.46,311.266 1460,378.5C 1514.86,450.038 1545.52,531.038 1552,621.5C 1551.75,727.759 1520.58,823.759 1458.5,909.5 Z"/></g>
<g><path style="opacity:1" fill="#ffb98c" d="M 1450.5,911.5 C 1440.68,912.636 1431.01,912.636 1421.5,911.5C 1423.83,911.5 1426.17,911.5 1428.5,911.5C 1430.5,911.5 1432.5,911.5 1434.5,911.5C 1436.29,911.785 1437.95,911.452 1439.5,910.5C 1510.35,819.114 1542.51,715.448 1536,599.5C 1524.26,510.724 1489.26,432.724 1431,365.5C 1385.75,312.898 1331.92,271.731 1269.5,242C 1175.33,199.859 1078.33,192.192 978.5,219C 865.551,251.86 779.051,318.693 719,419.5C 664.541,517.596 648.874,621.596 672,731.5C 691.336,806.668 727.003,872.668 779,929.5C 832.444,988.987 896.944,1032.15 972.5,1059C 1029.95,1079.06 1088.62,1084.56 1148.5,1075.5C 1150.83,1077.5 1153.17,1079.5 1155.5,1081.5C 1155.05,1082.46 1154.38,1083.29 1153.5,1084C 1126.25,1087.22 1098.92,1088.22 1071.5,1087C 1048.95,1085.06 1026.62,1081.73 1004.5,1077C 943.216,1060.35 887.882,1033.35 838.5,996C 827.217,986.392 815.883,976.725 804.5,967C 795.667,956.833 786.167,947.333 776,938.5C 769.171,930.306 762.171,922.306 755,914.5C 743.469,899.456 732.303,884.122 721.5,868.5C 716.616,858.403 710.95,848.736 704.5,839.5C 699.102,826.373 692.936,813.706 686,801.5C 682.451,789.516 678.117,777.85 673,766.5C 661.446,728.054 654.779,688.72 653,648.5C 652.178,541.967 683.845,446.634 748,362.5C 754.963,354.308 762.296,346.308 770,338.5C 770.667,337.167 771.333,335.833 772,334.5C 797.363,309.229 824.529,286.396 853.5,266C 963.077,198.46 1080.74,179.626 1206.5,209.5C 1224.37,215.021 1242.04,221.188 1259.5,228C 1271.71,234.936 1284.37,241.102 1297.5,246.5C 1304.24,250.894 1311.24,254.894 1318.5,258.5C 1330.11,266.422 1341.78,274.422 1353.5,282.5C 1359.52,287.673 1365.86,292.507 1372.5,297C 1393.84,316.332 1414.67,336.499 1435,357.5C 1435.33,358.5 1435.67,359.5 1436,360.5C 1448.41,372.733 1459.08,386.4 1468,401.5C 1472.24,405.935 1475.57,410.935 1478,416.5C 1481.43,420.37 1484.1,424.703 1486,429.5C 1549.01,535.931 1562.01,648.265 1525,766.5C 1520.04,780.984 1514.71,795.317 1509,809.5C 1506.38,812.769 1504.72,816.435 1504,820.5C 1490.2,851.461 1472.86,880.128 1452,906.5C 1451.39,908.154 1450.89,909.821 1450.5,911.5 Z"/></g>
<g><path style="opacity:1" fill="#ffb688" d="M 1434.5,911.5 C 1496.74,831.299 1530.08,740.132 1534.5,638C 1531.71,551.284 1505.21,472.784 1455,402.5C 1403.51,330.997 1337.67,277.163 1257.5,241C 1160.8,201.085 1062.47,196.751 962.5,228C 856.027,263.824 774.86,330.324 719,427.5C 662.61,533.461 650.943,644.128 684,759.5C 709.348,835.391 751.182,900.557 809.5,955C 862.587,1005.56 924.587,1041.23 995.5,1062C 1037.09,1073.77 1079.42,1078.1 1122.5,1075C 1130.47,1074.87 1138.13,1073.71 1145.5,1071.5C 1146.49,1072.8 1147.49,1074.13 1148.5,1075.5C 1088.62,1084.56 1029.95,1079.06 972.5,1059C 896.944,1032.15 832.444,988.987 779,929.5C 727.003,872.668 691.336,806.668 672,731.5C 648.874,621.596 664.541,517.596 719,419.5C 779.051,318.693 865.551,251.86 978.5,219C 1078.33,192.192 1175.33,199.859 1269.5,242C 1331.92,271.731 1385.75,312.898 1431,365.5C 1489.26,432.724 1524.26,510.724 1536,599.5C 1542.51,715.448 1510.35,819.114 1439.5,910.5C 1437.95,911.452 1436.29,911.785 1434.5,911.5 Z"/></g>
<g><path style="opacity:1" fill="#ffb486" d="M 1434.5,911.5 C 1432.5,911.5 1430.5,911.5 1428.5,911.5C 1501.22,820.823 1534.39,717.156 1528,600.5C 1516.3,512.296 1481.3,434.963 1423,368.5C 1365.26,302.035 1294.43,255.202 1210.5,228C 1088.8,195.544 974.134,211.878 866.5,277C 746.368,356.993 680.868,469.493 670,614.5C 666.046,713.385 693.046,802.718 751,882.5C 798.768,947.948 858.935,998.448 931.5,1034C 992.945,1063.13 1057.61,1075.46 1125.5,1071C 1131.35,1070.41 1137.01,1069.58 1142.5,1068.5C 1143.83,1069.17 1144.83,1070.17 1145.5,1071.5C 1138.13,1073.71 1130.47,1074.87 1122.5,1075C 1079.42,1078.1 1037.09,1073.77 995.5,1062C 924.587,1041.23 862.587,1005.56 809.5,955C 751.182,900.557 709.348,835.391 684,759.5C 650.943,644.128 662.61,533.461 719,427.5C 774.86,330.324 856.027,263.824 962.5,228C 1062.47,196.751 1160.8,201.085 1257.5,241C 1337.67,277.163 1403.51,330.997 1455,402.5C 1505.21,472.784 1531.71,551.284 1534.5,638C 1530.08,740.132 1496.74,831.299 1434.5,911.5 Z"/></g>
<g><path style="opacity:1" fill="#ffb07f" d="M 1428.5,911.5 C 1426.17,911.5 1423.83,911.5 1421.5,911.5C 1419.26,911.795 1417.26,911.461 1415.5,910.5C 1481.46,832.01 1516.12,741.177 1519.5,638C 1517.91,564.566 1497.74,496.732 1459,434.5C 1405.54,351.697 1333.7,290.53 1243.5,251C 1165.17,220.135 1084.84,213.802 1002.5,232C 882.699,261.183 792.199,329.017 731,435.5C 678.822,534.112 666.822,637.445 695,745.5C 720.394,826.473 764.561,895.306 827.5,952C 878.056,997.782 936.389,1030.12 1002.5,1049C 1046.38,1061.09 1090.71,1064.25 1135.5,1058.5C 1137.82,1061.8 1140.15,1065.13 1142.5,1068.5C 1137.01,1069.58 1131.35,1070.41 1125.5,1071C 1057.61,1075.46 992.945,1063.13 931.5,1034C 858.935,998.448 798.768,947.948 751,882.5C 693.046,802.718 666.046,713.385 670,614.5C 680.868,469.493 746.368,356.993 866.5,277C 974.134,211.878 1088.8,195.544 1210.5,228C 1294.43,255.202 1365.26,302.035 1423,368.5C 1481.3,434.963 1516.3,512.296 1528,600.5C 1534.39,717.156 1501.22,820.823 1428.5,911.5 Z"/></g>
<g><path style="opacity:1" fill="#ffac78" d="M 1415.5,910.5 C 1412.22,910.58 1409.22,909.913 1406.5,908.5C 1477.79,824.16 1512.29,726.494 1510,615.5C 1502.14,531.479 1471.47,457.146 1418,392.5C 1361.27,323.542 1290.44,275.042 1205.5,247C 1082.26,213.985 967.596,232.651 861.5,303C 749.565,385.186 691.898,496.186 688.5,636C 690.556,733.199 722.39,819.032 784,893.5C 831.585,951.424 889.752,995.258 958.5,1025C 1013.86,1047.95 1071.2,1056.45 1130.5,1050.5C 1132.65,1052.79 1134.32,1055.46 1135.5,1058.5C 1090.71,1064.25 1046.38,1061.09 1002.5,1049C 936.389,1030.12 878.056,997.782 827.5,952C 764.561,895.306 720.394,826.473 695,745.5C 666.822,637.445 678.822,534.112 731,435.5C 792.199,329.017 882.699,261.183 1002.5,232C 1084.84,213.802 1165.17,220.135 1243.5,251C 1333.7,290.53 1405.54,351.697 1459,434.5C 1497.74,496.732 1517.91,564.566 1519.5,638C 1516.12,741.177 1481.46,832.01 1415.5,910.5 Z"/></g>
<g><path style="opacity:1" fill="#ffa973" d="M 1406.5,908.5 C 1403.85,908.59 1401.51,907.924 1399.5,906.5C 1466.33,830.066 1501.67,740.732 1505.5,638.5C 1502.07,547.332 1471.57,466.665 1414,396.5C 1358.41,328.598 1288.91,280.765 1205.5,253C 1074.61,217.864 954.947,240.531 846.5,321C 753.948,396.591 703.448,494.424 695,614.5C 691.07,708.358 716.736,793.025 772,868.5C 818.828,932.333 877.995,981.166 949.5,1015C 1005.56,1040.14 1064.22,1050.48 1125.5,1046C 1126.42,1045.72 1127.08,1045.22 1127.5,1044.5C 1129.01,1046.18 1130.01,1048.18 1130.5,1050.5C 1071.2,1056.45 1013.86,1047.95 958.5,1025C 889.752,995.258 831.585,951.424 784,893.5C 722.39,819.032 690.556,733.199 688.5,636C 691.898,496.186 749.565,385.186 861.5,303C 967.596,232.651 1082.26,213.985 1205.5,247C 1290.44,275.042 1361.27,323.542 1418,392.5C 1471.47,457.146 1502.14,531.479 1510,615.5C 1512.29,726.494 1477.79,824.16 1406.5,908.5 Z"/></g>
<g><path style="opacity:1" fill="#ffa871" d="M 1399.5,906.5 C 1397.45,906.598 1395.78,905.931 1394.5,904.5C 1397.96,903.564 1400.79,901.564 1403,898.5C 1465.12,823.209 1497.95,736.543 1501.5,638.5C 1499.86,562.43 1477.7,493.096 1435,430.5C 1377.63,347.901 1301.47,290.068 1206.5,257C 1090.85,224.44 981.853,239.44 879.5,302C 771.012,375.065 710.846,477.231 699,608.5C 693.787,692.652 713.454,770.318 758,841.5C 809.603,922.777 879.77,981.944 968.5,1019C 1019.53,1039.23 1072.2,1046.73 1126.5,1041.5C 1127.4,1042.21 1127.74,1043.21 1127.5,1044.5C 1127.08,1045.22 1126.42,1045.72 1125.5,1046C 1064.22,1050.48 1005.56,1040.14 949.5,1015C 877.995,981.166 818.828,932.333 772,868.5C 716.736,793.025 691.07,708.358 695,614.5C 703.448,494.424 753.948,396.591 846.5,321C 954.947,240.531 1074.61,217.864 1205.5,253C 1288.91,280.765 1358.41,328.598 1414,396.5C 1471.57,466.665 1502.07,547.332 1505.5,638.5C 1501.67,740.732 1466.33,830.066 1399.5,906.5 Z"/></g>
<g><path style="opacity:1" fill="#ffa76d" d="M 1394.5,904.5 C 1393.21,904.737 1392.21,904.404 1391.5,903.5C 1452.56,834.593 1487.39,753.926 1496,661.5C 1499.81,583.405 1480.81,511.405 1439,445.5C 1385.33,362.498 1312.5,302.998 1220.5,267C 1109,230.241 1001.66,239.908 898.5,296C 782.608,366.035 717.775,468.868 704,604.5C 697.739,707.038 726.406,798.372 790,878.5C 838.789,939.629 899.289,985.129 971.5,1015C 1020.95,1034.55 1071.95,1041.72 1124.5,1036.5C 1125.54,1037.93 1126.2,1039.6 1126.5,1041.5C 1072.2,1046.73 1019.53,1039.23 968.5,1019C 879.77,981.944 809.603,922.777 758,841.5C 713.454,770.318 693.787,692.652 699,608.5C 710.846,477.231 771.012,375.065 879.5,302C 981.853,239.44 1090.85,224.44 1206.5,257C 1301.47,290.068 1377.63,347.901 1435,430.5C 1477.7,493.096 1499.86,562.43 1501.5,638.5C 1497.95,736.543 1465.12,823.209 1403,898.5C 1400.79,901.564 1397.96,903.564 1394.5,904.5 Z"/></g>
<g><path style="opacity:1" fill="#ffa46b" d="M 1391.5,903.5 C 1389.85,903.34 1388.51,902.674 1387.5,901.5C 1388.5,901.586 1389.33,901.252 1390,900.5C 1464.33,814.837 1498,715.17 1491,601.5C 1481.14,529.804 1453.8,465.804 1409,409.5C 1358.61,346.453 1295.78,300.287 1220.5,271C 1120.41,236.45 1021.41,241.783 923.5,287C 809.178,345.698 739.011,438.198 713,564.5C 693.545,683.351 721.878,789.351 798,882.5C 851.163,947.513 917.663,993.346 997.5,1020C 1038.65,1032.87 1080.65,1037.37 1123.5,1033.5C 1124.4,1034.21 1124.74,1035.21 1124.5,1036.5C 1071.95,1041.72 1020.95,1034.55 971.5,1015C 899.289,985.129 838.789,939.629 790,878.5C 726.406,798.372 697.739,707.038 704,604.5C 717.775,468.868 782.608,366.035 898.5,296C 1001.66,239.908 1109,230.241 1220.5,267C 1312.5,302.998 1385.33,362.498 1439,445.5C 1480.81,511.405 1499.81,583.405 1496,661.5C 1487.39,753.926 1452.56,834.593 1391.5,903.5 Z"/></g>
<g><path style="opacity:1" fill="#ffa369" d="M 1387.5,901.5 C 1386.51,901.672 1385.84,901.338 1385.5,900.5C 1439.37,838.75 1472.87,767.083 1486,685.5C 1496.17,600.032 1478.17,521.032 1432,448.5C 1381.47,370.968 1313.64,314.135 1228.5,278C 1114.91,237.049 1005.24,245.716 899.5,304C 785.191,374.685 722.357,477.518 711,612.5C 706.84,703.668 731.506,786.001 785,859.5C 830.805,922.296 888.972,969.796 959.5,1002C 1011.8,1024.71 1066.14,1034.21 1122.5,1030.5C 1123.4,1031.21 1123.74,1032.21 1123.5,1033.5C 1080.65,1037.37 1038.65,1032.87 997.5,1020C 917.663,993.346 851.163,947.513 798,882.5C 721.878,789.351 693.545,683.351 713,564.5C 739.011,438.198 809.178,345.698 923.5,287C 1021.41,241.783 1120.41,236.45 1220.5,271C 1295.78,300.287 1358.61,346.453 1409,409.5C 1453.8,465.804 1481.14,529.804 1491,601.5C 1498,715.17 1464.33,814.837 1390,900.5C 1389.33,901.252 1388.5,901.586 1387.5,901.5 Z"/></g>
<g><path style="opacity:1" fill="#ffa165" d="M 1385.5,900.5 C 1382.52,899.674 1379.85,898.341 1377.5,896.5C 1380.39,895.118 1382.89,893.118 1385,890.5C 1452.19,811.844 1484.53,720.511 1482,616.5C 1475.6,547.958 1452.27,485.958 1412,430.5C 1356.84,355.491 1285.01,303.324 1196.5,274C 1084.09,243.838 979.09,260.171 881.5,323C 784.129,391.855 729.629,486.022 718,605.5C 712.201,703.754 739.534,791.421 800,868.5C 844.348,924.859 899.182,967.692 964.5,997C 1014.39,1018.48 1066.39,1027.31 1120.5,1023.5C 1121.92,1025.51 1122.59,1027.85 1122.5,1030.5C 1066.14,1034.21 1011.8,1024.71 959.5,1002C 888.972,969.796 830.805,922.296 785,859.5C 731.506,786.001 706.84,703.668 711,612.5C 722.357,477.518 785.191,374.685 899.5,304C 1005.24,245.716 1114.91,237.049 1228.5,278C 1313.64,314.135 1381.47,370.968 1432,448.5C 1478.17,521.032 1496.17,600.032 1486,685.5C 1472.87,767.083 1439.37,838.75 1385.5,900.5 Z"/></g>
<g><path style="opacity:1" fill="#ff9e60" d="M 1377.5,896.5 C 1374.29,894.735 1371.29,892.735 1368.5,890.5C 1370.37,890.141 1371.87,889.141 1373,887.5C 1430.71,821.431 1463.38,744.431 1471,656.5C 1472.66,629.371 1470.49,602.705 1464.5,576.5C 1463.06,559.857 1458.4,544.19 1450.5,529.5C 1451.04,529.44 1451.38,529.107 1451.5,528.5C 1427.94,466.882 1391.61,414.049 1342.5,370C 1294.22,326.689 1238.56,296.689 1175.5,280C 1048.31,253.709 936.639,283.709 840.5,370C 760.918,449.358 723.752,545.525 729,658.5C 734.566,728.546 757.899,791.879 799,848.5C 843.491,909.978 900.324,956.145 969.5,987C 1017.15,1007.39 1066.81,1015.89 1118.5,1012.5C 1118.5,1011.17 1118.5,1009.83 1118.5,1008.5C 1119.59,1013.31 1120.26,1018.31 1120.5,1023.5C 1066.39,1027.31 1014.39,1018.48 964.5,997C 899.182,967.692 844.348,924.859 800,868.5C 739.534,791.421 712.201,703.754 718,605.5C 729.629,486.022 784.129,391.855 881.5,323C 979.09,260.171 1084.09,243.838 1196.5,274C 1285.01,303.324 1356.84,355.491 1412,430.5C 1452.27,485.958 1475.6,547.958 1482,616.5C 1484.53,720.511 1452.19,811.844 1385,890.5C 1382.89,893.118 1380.39,895.118 1377.5,896.5 Z"/></g>
<g><path style="opacity:1" fill="#ff9a5a" d="M 1450.5,529.5 C 1447.25,524.403 1443.75,519.403 1440,514.5C 1435.3,509.965 1430.8,505.298 1426.5,500.5C 1427.04,500.44 1427.38,500.107 1427.5,499.5C 1381.45,409.285 1311.79,344.452 1218.5,305C 1159.98,282.206 1099.65,275.539 1037.5,285C 931.61,302.994 849.777,356.827 792,446.5C 740.049,533.424 726.383,626.091 751,724.5C 782.046,824.451 842.213,901.618 931.5,956C 989.242,990.195 1051.58,1005.36 1118.5,1001.5C 1118.5,1003.83 1118.5,1006.17 1118.5,1008.5C 1118.5,1009.83 1118.5,1011.17 1118.5,1012.5C 1066.81,1015.89 1017.15,1007.39 969.5,987C 900.324,956.145 843.491,909.978 799,848.5C 757.899,791.879 734.566,728.546 729,658.5C 723.752,545.525 760.918,449.358 840.5,370C 936.639,283.709 1048.31,253.709 1175.5,280C 1238.56,296.689 1294.22,326.689 1342.5,370C 1391.61,414.049 1427.94,466.882 1451.5,528.5C 1451.38,529.107 1451.04,529.44 1450.5,529.5 Z"/></g>
<g><path style="opacity:1" fill="#fff9f6" d="M 1563.5,927.5 C 1562.83,927.167 1562.17,926.833 1561.5,926.5C 1619.78,829.595 1647.78,724.261 1645.5,610.5C 1630.95,445.596 1558.62,311.429 1428.5,208C 1301.74,111.021 1159.07,75.6877 1000.5,102C 852.003,131.128 733.503,208.628 645,334.5C 567.634,450.467 538.467,579.467 557.5,721.5C 578.997,848.338 636.997,955.172 731.5,1042C 809.048,1112.77 899.381,1157.94 1002.5,1177.5C 1065.68,1190.82 1128.84,1190.82 1192,1177.5C 1272.25,1162.35 1346.41,1130.69 1414.5,1082.5C 1415.5,1083.17 1416.5,1083.83 1417.5,1084.5C 1415.38,1087.45 1412.71,1089.95 1409.5,1092C 1368.55,1120.14 1324.55,1142.47 1277.5,1159C 1166,1198.59 1053.67,1201.25 940.5,1167C 809.194,1124.29 706.028,1045.12 631,929.5C 537.106,773.654 521.772,610.321 585,439.5C 648.076,287.09 756.576,181.257 910.5,122C 1085.41,62.6196 1250.07,83.2863 1404.5,184C 1542.53,281.813 1623.03,414.979 1646,583.5C 1656.53,705.383 1630.53,818.716 1568,923.5C 1567.12,925.635 1565.62,926.969 1563.5,927.5 Z"/></g>
<g><path style="opacity:1" fill="#ffebe1" d="M 1548.5,917.5 C 1547.51,917.672 1546.84,917.338 1546.5,916.5C 1597.3,830.709 1624.96,738.542 1629.5,640C 1623.27,486.639 1564.94,358.305 1454.5,255C 1393.57,197.707 1323.24,156.707 1243.5,132C 1105.65,94.2376 973.649,108.238 847.5,174C 807.154,196.754 769.488,223.92 734.5,255.5C 734.369,254.761 734.536,254.094 735,253.5C 766.585,223.612 802.085,197.445 841.5,175C 948.824,117.6 1062.66,97.4334 1183,114.5C 1305.02,138.89 1407.69,196.89 1491,288.5C 1579.92,388.139 1626.42,505.306 1630.5,640C 1626.96,739.669 1599.63,832.169 1548.5,917.5 Z"/></g>
<g><path style="opacity:1" fill="#ff9755" d="M 1426.5,500.5 C 1421.49,497.159 1416.49,493.826 1411.5,490.5C 1364.44,405.942 1295.77,346.109 1205.5,311C 1110.57,278.95 1018.57,285.617 929.5,331C 822.936,391.554 763.103,483.054 750,605.5C 744.324,692.453 767.324,770.786 819,840.5C 863.688,900.859 920.855,945.026 990.5,973C 1031.62,988.349 1074.29,994.516 1118.5,991.5C 1118.5,994.833 1118.5,998.167 1118.5,1001.5C 1051.58,1005.36 989.242,990.195 931.5,956C 842.213,901.618 782.046,824.451 751,724.5C 726.383,626.091 740.049,533.424 792,446.5C 849.777,356.827 931.61,302.994 1037.5,285C 1099.65,275.539 1159.98,282.206 1218.5,305C 1311.79,344.452 1381.45,409.285 1427.5,499.5C 1427.38,500.107 1427.04,500.44 1426.5,500.5 Z"/></g>
<g><path style="opacity:1" fill="#ff9553" d="M 1411.5,490.5 C 1408.52,489.674 1405.85,488.341 1403.5,486.5C 1404.24,486.631 1404.91,486.464 1405.5,486C 1353.68,397.859 1279.01,338.192 1181.5,307C 1076.78,280.562 980.113,297.895 891.5,359C 801.369,427.757 755.035,519.257 752.5,633.5C 753.318,698.444 770.818,758.444 805,813.5C 841.885,871.721 890.385,917.555 950.5,951C 1003.91,979.296 1059.91,991.796 1118.5,988.5C 1118.5,989.5 1118.5,990.5 1118.5,991.5C 1074.29,994.516 1031.62,988.349 990.5,973C 920.855,945.026 863.688,900.859 819,840.5C 767.324,770.786 744.324,692.453 750,605.5C 763.103,483.054 822.936,391.554 929.5,331C 1018.57,285.617 1110.57,278.95 1205.5,311C 1295.77,346.109 1364.44,405.942 1411.5,490.5 Z"/></g>
<g><path style="opacity:1" fill="#ff924d" d="M 1403.5,486.5 C 1391.67,482.208 1379.67,479.208 1367.5,477.5C 1369.2,477.66 1370.87,477.494 1372.5,477C 1323.85,404.148 1257.52,354.815 1173.5,329C 1064.13,302.431 966.46,325.098 880.5,397C 804.402,468.584 769.902,556.751 777,661.5C 785.081,730.634 811.414,791.634 856,844.5C 894.715,890.28 941.882,924.447 997.5,947C 1038.5,962.611 1080.83,968.444 1124.5,964.5C 1121.87,972.348 1119.87,980.348 1118.5,988.5C 1059.91,991.796 1003.91,979.296 950.5,951C 890.385,917.555 841.885,871.721 805,813.5C 770.818,758.444 753.318,698.444 752.5,633.5C 755.035,519.257 801.369,427.757 891.5,359C 980.113,297.895 1076.78,280.562 1181.5,307C 1279.01,338.192 1353.68,397.859 1405.5,486C 1404.91,486.464 1404.24,486.631 1403.5,486.5 Z"/></g>
<g><path style="opacity:1" fill="#ff8d46" d="M 1367.5,477.5 C 1362.17,477.5 1356.83,477.5 1351.5,477.5C 1299.07,403.255 1228.07,357.089 1138.5,339C 1033.71,324.856 944.543,355.356 871,430.5C 814.487,494.612 788.82,569.612 794,655.5C 798.943,710.34 816.943,760.34 848,805.5C 888.931,864.441 942.764,906.941 1009.5,933C 1048.55,946.875 1088.22,951.375 1128.5,946.5C 1127.29,952.529 1125.96,958.529 1124.5,964.5C 1080.83,968.444 1038.5,962.611 997.5,947C 941.882,924.447 894.715,890.28 856,844.5C 811.414,791.634 785.081,730.634 777,661.5C 769.902,556.751 804.402,468.584 880.5,397C 966.46,325.098 1064.13,302.431 1173.5,329C 1257.52,354.815 1323.85,404.148 1372.5,477C 1370.87,477.494 1369.2,477.66 1367.5,477.5 Z"/></g>
<g><path style="opacity:1" fill="#ff8a41" d="M 1351.5,477.5 C 1311.74,481.617 1282.58,501.284 1264,536.5C 1259.61,547.682 1255.61,559.016 1252,570.5C 1237.58,604.914 1212.41,627.414 1176.5,638C 1158.55,640.478 1140.55,642.478 1122.5,644C 1074.77,658.402 1046.93,690.236 1039,739.5C 1035.72,785.098 1052.88,820.598 1090.5,846C 1120.37,872.923 1133.04,906.423 1128.5,946.5C 1088.22,951.375 1048.55,946.875 1009.5,933C 942.764,906.941 888.931,864.441 848,805.5C 816.943,760.34 798.943,710.34 794,655.5C 788.82,569.612 814.487,494.612 871,430.5C 944.543,355.356 1033.71,324.856 1138.5,339C 1228.07,357.089 1299.07,403.255 1351.5,477.5 Z"/></g>
<g><path style="opacity:1" fill="#ffebe1" d="M 620.5,409.5 C 620.611,410.117 620.944,410.617 621.5,411C 581.958,493.716 564.792,581.216 570,673.5C 582.163,811.995 638.997,928.828 740.5,1024C 840.047,1116.74 959.214,1165.91 1098,1171.5C 1200.78,1166.81 1296.28,1136.97 1384.5,1082C 1388.53,1079.84 1391.87,1077.01 1394.5,1073.5C 1395.39,1074.11 1396.39,1074.44 1397.5,1074.5C 1391.08,1079.56 1384.41,1084.39 1377.5,1089C 1304.4,1132.59 1225.57,1160.09 1141,1171.5C 967.514,1178.39 822.18,1118.39 705,991.5C 586.817,857.606 544.817,702.939 579,527.5C 587.918,486.586 601.752,447.253 620.5,409.5 Z"/></g>
<g><path style="opacity:1" fill="#ff9a5a" d="M 1464.5,576.5 C 1470.49,602.705 1472.66,629.371 1471,656.5C 1463.38,744.431 1430.71,821.431 1373,887.5C 1371.87,889.141 1370.37,890.141 1368.5,890.5C 1365.22,888.883 1362.55,886.55 1360.5,883.5C 1367.79,877.371 1374.29,870.371 1380,862.5C 1431.38,797.052 1458.21,722.552 1460.5,639C 1460.5,631.799 1459.83,624.966 1458.5,618.5C 1463.1,604.887 1465.1,590.887 1464.5,576.5 Z"/></g>
<g><path style="opacity:1" fill="#ff9655" d="M 1458.5,618.5 C 1459.83,624.966 1460.5,631.799 1460.5,639C 1458.21,722.552 1431.38,797.052 1380,862.5C 1374.29,870.371 1367.79,877.371 1360.5,883.5C 1356.86,880.527 1353.53,877.194 1350.5,873.5C 1351.24,873.631 1351.91,873.464 1352.5,873C 1411.35,807.677 1443.01,731.343 1447.5,644C 1446.91,643.536 1446.24,643.369 1445.5,643.5C 1450.61,635.607 1454.95,627.274 1458.5,618.5 Z"/></g>
<g><path style="opacity:1" fill="#ff924e" d="M 1445.5,643.5 C 1446.24,643.369 1446.91,643.536 1447.5,644C 1443.01,731.343 1411.35,807.677 1352.5,873C 1351.91,873.464 1351.24,873.631 1350.5,873.5C 1345.09,867.753 1340.43,861.42 1336.5,854.5C 1339.73,852.78 1342.56,850.447 1345,847.5C 1387.67,796.14 1413.5,737.14 1422.5,670.5C 1422.46,669.584 1422.12,668.917 1421.5,668.5C 1430.85,661.486 1438.85,653.153 1445.5,643.5 Z"/></g>
<g><path style="opacity:1" fill="#ff8e47" d="M 1421.5,668.5 C 1422.12,668.917 1422.46,669.584 1422.5,670.5C 1413.5,737.14 1387.67,796.14 1345,847.5C 1342.56,850.447 1339.73,852.78 1336.5,854.5C 1333.83,849.167 1331.17,843.833 1328.5,838.5C 1358.77,804.992 1380.61,766.325 1394,722.5C 1398.27,708.405 1401.44,694.071 1403.5,679.5C 1409.48,675.868 1415.48,672.201 1421.5,668.5 Z"/></g>
<g><path style="opacity:1" fill="#ff8b42" d="M 1403.5,679.5 C 1401.44,694.071 1398.27,708.405 1394,722.5C 1380.61,766.325 1358.77,804.992 1328.5,838.5C 1312.58,796.984 1317.08,757.984 1342,721.5C 1358.31,701.423 1378.81,687.423 1403.5,679.5 Z"/></g>
</svg>
